<svg width="15" height="16" viewBox="0 0 15 16" fill="none" xmlns="http://www.w3.org/2000/svg">
<path fill-rule="evenodd" clip-rule="evenodd" d="M7.5 15.171C3.35786 15.171 0 11.8131 0 7.67096C0 3.52882 3.35786 0.170959 7.5 0.170959C11.6421 0.170959 15 3.52882 15 7.67096C15 11.8131 11.6421 15.171 7.5 15.171ZM7.5 13.8073C10.889 13.8073 13.6364 11.06 13.6364 7.67096C13.6364 4.28194 10.889 1.5346 7.5 1.5346C4.11098 1.5346 1.36364 4.28194 1.36364 7.67096C1.36364 11.06 4.11098 13.8073 7.5 13.8073ZM7.50022 11.0789C7.12354 11.0789 6.81818 10.7737 6.81818 10.3971C6.81818 10.0205 7.12354 9.71529 7.50022 9.71529C7.8769 9.71529 8.18227 10.0205 8.18227 10.3971C8.18227 10.7737 7.8769 11.0789 7.50022 11.0789ZM8.18182 9.0346H6.81818C6.81818 7.87438 7.24403 7.37756 8.21781 6.89067C8.77812 6.61051 8.86364 6.51075 8.86364 5.96641C8.86364 5.32306 8.37079 4.94369 7.5 4.94369C6.74688 4.94369 6.13636 5.55421 6.13636 6.30732H4.77273C4.77273 4.80109 5.99377 3.58005 7.5 3.58005C9.05751 3.58005 10.2273 4.48048 10.2273 5.96641C10.2273 7.12663 9.80142 7.62345 8.82765 8.11034C8.26733 8.3905 8.18182 8.49026 8.18182 9.0346Z" fill="#5F6368"/>
</svg>
