<svg width="15" height="16" viewBox="0 0 15 16" fill="none" xmlns="http://www.w3.org/2000/svg">
<path d="M13.7325 9.46722L13.4062 9.23855C13.3185 9.17739 13.2477 9.09984 13.1991 9.01163C13.1504 8.92343 13.1251 8.82683 13.125 8.72896V6.08953C13.1246 4.95525 12.6724 3.85624 11.8456 2.97995C11.0188 2.10366 9.86864 1.50438 8.59125 1.28433C8.52897 1.0739 8.38815 0.887465 8.19095 0.754355C7.99375 0.621246 7.75135 0.549011 7.50187 0.549011C7.2524 0.549011 7.01 0.621246 6.8128 0.754355C6.6156 0.887465 6.47478 1.0739 6.4125 1.28433C5.13442 1.50372 3.98338 2.10271 3.15585 2.97906C2.32832 3.85541 1.87561 4.95479 1.875 6.08953V8.72896C1.87493 8.82683 1.84962 8.92343 1.80094 9.01163C1.75226 9.09984 1.68145 9.17739 1.59375 9.23855L1.2675 9.46722C0.87348 9.74162 0.555086 10.0895 0.335737 10.4852C0.116388 10.8809 0.00166259 11.3144 0 11.7539V12.2961C0 12.6427 0.158035 12.975 0.43934 13.2201C0.720644 13.4651 1.10218 13.6028 1.5 13.6028H4.5975C4.76655 14.1606 5.14276 14.654 5.66745 15.006C6.19214 15.3581 6.83583 15.549 7.49813 15.549C8.16043 15.549 8.80411 15.3581 9.3288 15.006C9.85349 14.654 10.2297 14.1606 10.3988 13.6028H13.5C13.8978 13.6028 14.2794 13.4651 14.5607 13.2201C14.842 12.975 15 12.6427 15 12.2961V11.7604C14.9995 11.3199 14.8853 10.8851 14.6659 10.4881C14.4465 10.0912 14.1275 9.74231 13.7325 9.46722ZM7.5 14.2561C7.23823 14.2547 6.98143 14.1937 6.75512 14.0791C6.52882 13.9645 6.34088 13.8002 6.21 13.6028H8.79375C8.66255 13.8007 8.47402 13.9652 8.247 14.0799C8.01998 14.1945 7.76241 14.2553 7.5 14.2561ZM13.5 12.2961H1.5V11.7604C1.5004 11.5156 1.56397 11.274 1.686 11.0535C1.80803 10.833 1.9854 10.6392 2.205 10.4864L2.53125 10.2577C2.79436 10.0742 3.00678 9.84159 3.15282 9.57698C3.29886 9.31237 3.37479 9.02256 3.375 8.72896V6.08953C3.375 5.13653 3.8096 4.22257 4.58318 3.5487C5.35677 2.87483 6.40598 2.49625 7.5 2.49625C8.59402 2.49625 9.64323 2.87483 10.4168 3.5487C11.1904 4.22257 11.625 5.13653 11.625 6.08953V8.72896C11.6246 9.02311 11.7003 9.31356 11.8464 9.57878C11.9924 9.84399 12.2051 10.0772 12.4688 10.261L12.795 10.4897C13.0141 10.6421 13.1912 10.8354 13.3132 11.0553C13.4352 11.2752 13.499 11.5161 13.5 11.7604V12.2961Z" fill="#5F6368"/>
</svg>
