<svg width="17" height="17" viewBox="0 0 17 17" fill="none" xmlns="http://www.w3.org/2000/svg">
<path d="M8.5 16.2926C12.6421 16.2926 16 12.9347 16 8.7926C16 4.65047 12.6421 1.2926 8.5 1.2926C4.35786 1.2926 1 4.65047 1 8.7926C1 12.9347 4.35786 16.2926 8.5 16.2926Z" stroke="#EE7421" stroke-miterlimit="10" stroke-linejoin="round"/>
<path d="M13.5001 14.2927C13.5001 11.5312 11.2616 9.29266 8.50012 9.29266C5.73862 9.29266 3.50012 11.5312 3.50012 14.2927" stroke="#EE7421" stroke-miterlimit="10" stroke-linejoin="round"/>
<path d="M8.5 9.29254C10.1569 9.29254 11.5 7.9494 11.5 6.29254C11.5 4.63569 10.1569 3.29254 8.5 3.29254C6.84315 3.29254 5.5 4.63569 5.5 6.29254C5.5 7.9494 6.84315 9.29254 8.5 9.29254Z" stroke="#EE7421" stroke-miterlimit="10" stroke-linejoin="round"/>
</svg>
